{
	"asset":{
		"generator":"Khronos glTF Blender I/O v4.5.47",
		"version":"2.0"
	},
	"scene":0,
	"scenes":[
		{
			"name":"Scene",
			"nodes":[
				8
			]
		}
	],
	"nodes":[
		{
			"name":"Floor",
			"translation":[
				2.244999885559082,
				1,
				-2.091956853866577
			]
		},
		{
			"mesh":0,
			"name":"Room0",
			"translation":[
				1.159999966621399,
				0.9990000128746033,
				-4.684999942779541
			]
		},
		{
			"mesh":1,
			"name":"Room1",
			"translation":[
				3.352222204208374,
				0.9990000128746033,
				-1.6644444465637207
			]
		},
		{
			"mesh":2,
			"name":"Room2",
			"translation":[
				-0.6240000128746033,
				0.9990000128746033,
				-2.8469998836517334
			]
		},
		{
			"mesh":3,
			"name":"Room3",
			"translation":[
				2.052000045776367,
				0.9990000128746033,
				1.9680001735687256
			]
		},
		{
			"mesh":4,
			"name":"Room4",
			"translation":[
				-0.2462500035762787,
				0.9990000128746033,
				2.418750047683716
			]
		},
		{
			"children":[
				1,
				2,
				3,
				4,
				5
			],
			"name":"Rooms"
		},
		{
			"name":"Walls"
		},
		{
			"children":[
				0,
				6,
				7
			],
			"name":"Floorplan7",
			"rotation":[
				-0.7071068286895752,
				0,
				0.7071068286895752,
				3.090862321641907e-08
			]
		}
	],
	"materials":[
		{
			"doubleSided":true,
			"name":"MaterialName.001",
			"pbrMetallicRoughness":{
				"baseColorFactor":[
					4,
					39,
					33,
					1
				],
				"metallicFactor":0,
				"roughnessFactor":0.4000000059604645
			}
		},
		{
			"doubleSided":true,
			"name":"MaterialName.002",
			"pbrMetallicRoughness":{
				"baseColorFactor":[
					27,
					35,
					39,
					1
				],
				"metallicFactor":0,
				"roughnessFactor":0.4000000059604645
			}
		},
		{
			"doubleSided":true,
			"name":"MaterialName.003",
			"pbrMetallicRoughness":{
				"baseColorFactor":[
					28,
					20,
					13,
					1
				],
				"metallicFactor":0,
				"roughnessFactor":0.4000000059604645
			}
		},
		{
			"doubleSided":true,
			"name":"MaterialName.004",
			"pbrMetallicRoughness":{
				"baseColorFactor":[
					8,
					0,
					6,
					1
				],
				"metallicFactor":0,
				"roughnessFactor":0.4000000059604645
			}
		},
		{
			"doubleSided":true,
			"name":"MaterialName.005",
			"pbrMetallicRoughness":{
				"baseColorFactor":[
					0,
					18,
					15,
					1
				],
				"metallicFactor":0,
				"roughnessFactor":0.4000000059604645
			}
		}
	],
	"meshes":[
		{
			"name":"Room0",
			"primitives":[
				{
					"attributes":{
						"POSITION":0,
						"NORMAL":1
					},
					"indices":2,
					"material":0
				}
			]
		},
		{
			"name":"Room1",
			"primitives":[
				{
					"attributes":{
						"POSITION":3,
						"NORMAL":4
					},
					"indices":5,
					"material":1
				}
			]
		},
		{
			"name":"Room2",
			"primitives":[
				{
					"attributes":{
						"POSITION":6,
						"NORMAL":7
					},
					"indices":8,
					"material":2
				}
			]
		},
		{
			"name":"Room3",
			"primitives":[
				{
					"attributes":{
						"POSITION":9,
						"NORMAL":10
					},
					"indices":11,
					"material":3
				}
			]
		},
		{
			"name":"Room4",
			"primitives":[
				{
					"attributes":{
						"POSITION":12,
						"NORMAL":13
					},
					"indices":14,
					"material":4
				}
			]
		}
	],
	"accessors":[
		{
			"bufferView":0,
			"componentType":5126,
			"count":4,
			"max":[
				0.6499999761581421,
				0,
				0.5649999976158142
			],
			"min":[
				-0.6499999761581421,
				0,
				-0.5649999976158142
			],
			"type":"VEC3"
		},
		{
			"bufferView":1,
			"componentType":5126,
			"count":4,
			"type":"VEC3"
		},
		{
			"bufferView":2,
			"componentType":5123,
			"count":6,
			"type":"SCALAR"
		},
		{
			"bufferView":3,
			"componentType":5126,
			"count":9,
			"max":[
				1.397777795791626,
				0,
				2.2344443798065186
			],
			"min":[
				-1.512222170829773,
				0,
				-2.225555658340454
			],
			"type":"VEC3"
		},
		{
			"bufferView":4,
			"componentType":5126,
			"count":9,
			"type":"VEC3"
		},
		{
			"bufferView":5,
			"componentType":5123,
			"count":21,
			"type":"SCALAR"
		},
		{
			"bufferView":6,
			"componentType":5126,
			"count":10,
			"max":[
				2.434000015258789,
				0,
				3.4070000648498535
			],
			"min":[
				-1.8960000276565552,
				0,
				-2.4030001163482666
			],
			"type":"VEC3"
		},
		{
			"bufferView":7,
			"componentType":5126,
			"count":10,
			"type":"VEC3"
		},
		{
			"bufferView":8,
			"componentType":5123,
			"count":24,
			"type":"SCALAR"
		},
		{
			"bufferView":9,
			"componentType":5126,
			"count":5,
			"max":[
				1.9079999923706055,
				0,
				0.9919999837875366
			],
			"min":[
				-1.281999945640564,
				0,
				-1.1180000305175781
			],
			"type":"VEC3"
		},
		{
			"bufferView":10,
			"componentType":5126,
			"count":5,
			"type":"VEC3"
		},
		{
			"bufferView":11,
			"componentType":5123,
			"count":9,
			"type":"SCALAR"
		},
		{
			"bufferView":12,
			"componentType":5126,
			"count":8,
			"max":[
				0.8462499976158142,
				1.1102230246251565e-16,
				0.5412499904632568
			],
			"min":[
				-0.29374998807907104,
				1.1102230246251565e-16,
				-1.558750033378601
			],
			"type":"VEC3"
		},
		{
			"bufferView":13,
			"componentType":5126,
			"count":8,
			"type":"VEC3"
		},
		{
			"bufferView":14,
			"componentType":5123,
			"count":18,
			"type":"SCALAR"
		}
	],
	"bufferViews":[
		{
			"buffer":0,
			"byteLength":48,
			"byteOffset":0,
			"target":34962
		},
		{
			"buffer":0,
			"byteLength":48,
			"byteOffset":48,
			"target":34962
		},
		{
			"buffer":0,
			"byteLength":12,
			"byteOffset":96,
			"target":34963
		},
		{
			"buffer":0,
			"byteLength":108,
			"byteOffset":108,
			"target":34962
		},
		{
			"buffer":0,
			"byteLength":108,
			"byteOffset":216,
			"target":34962
		},
		{
			"buffer":0,
			"byteLength":42,
			"byteOffset":324,
			"target":34963
		},
		{
			"buffer":0,
			"byteLength":120,
			"byteOffset":368,
			"target":34962
		},
		{
			"buffer":0,
			"byteLength":120,
			"byteOffset":488,
			"target":34962
		},
		{
			"buffer":0,
			"byteLength":48,
			"byteOffset":608,
			"target":34963
		},
		{
			"buffer":0,
			"byteLength":60,
			"byteOffset":656,
			"target":34962
		},
		{
			"buffer":0,
			"byteLength":60,
			"byteOffset":716,
			"target":34962
		},
		{
			"buffer":0,
			"byteLength":18,
			"byteOffset":776,
			"target":34963
		},
		{
			"buffer":0,
			"byteLength":96,
			"byteOffset":796,
			"target":34962
		},
		{
			"buffer":0,
			"byteLength":96,
			"byteOffset":892,
			"target":34962
		},
		{
			"buffer":0,
			"byteLength":36,
			"byteOffset":988,
			"target":34963
		}
	],
	"buffers":[
		{
			"byteLength":1024,
			"uri":"6561d90c-eb1b-4bbb-8bbf-bce67005ceb0.bin"
		}
	]
}
